<svg width="223" height="64" viewBox="0 0 223 64" fill="none" xmlns="http://www.w3.org/2000/svg">
<path fill-rule="evenodd" clip-rule="evenodd" d="M19.2266 35.4727H24.928C31.552 35.4727 37.84 32.8362 37.84 25.6937C37.84 20.0373 34.432 17.7843 30.112 17.0173V16.9214C33.712 16.2024 36.88 13.8056 36.88 8.7723C36.88 1.58189 30.736 0 24.208 0H10V20.3087L17.68 26.7478V20.1332H23.632C27.952 20.1332 30.208 21.6671 30.208 24.783C30.208 27.8029 28.288 29.5286 23.968 29.5286H20.9966L21 29.5314H15.5806L19.2266 35.4727ZM15.7691 35.4727L12.4839 29.8784L10 32.3519V35.4727H15.7691ZM17.68 14.6205V6.03995H23.536C27.712 6.03995 29.392 7.5739 29.392 10.3542C29.392 13.0866 27.52 14.6205 23.44 14.6205H17.68ZM43.7868 35.4727H51.4668V0H43.7868V35.4727ZM73.6881 31.494C72.1521 33.4594 69.3201 36 64.8561 36C60.4881 36 57.3681 33.8429 57.3681 28.5699V9.92277H65.0961V26.3169C65.0961 28.6178 65.9601 29.8642 68.1201 29.8642C70.1841 29.8642 71.9601 28.7617 73.6881 27.2756V9.92277H81.4161V35.4727H73.6881V31.494ZM98.944 36C103.408 36 107.104 34.7057 110.08 32.1651L107.104 27.5632C105.376 29.1451 102.544 30.6312 99.52 30.6312C96.304 30.6312 93.952 29.0013 93.568 24.783H110.512V23.6325C110.512 12.032 104.032 9.39547 98.752 9.39547C93.472 9.39547 85.888 12.7989 85.888 22.7217C85.888 32.5965 92.272 36 98.944 36ZM93.664 20.229C94.24 16.49 96.304 14.9081 98.704 14.9081C101.584 14.9081 103.216 16.6338 103.6 20.229H93.664ZM119.207 35.4727H116.807V0H128.375C136.103 0 140.327 3.35553 140.327 9.20373C140.327 15.8189 135.575 18.8868 127.991 18.8868H119.207V35.4727ZM119.207 2.20506V16.6818H128.183C134.327 16.6818 137.927 14.8122 137.927 9.2996C137.927 4.1225 134.375 2.20506 128.135 2.20506H119.207ZM145.618 35.4727H147.922V18.8868C149.986 14.4288 153.586 11.9361 157.858 11.9361H158.674L159.058 9.77896H158.386C153.346 9.77896 150.13 12.2716 148.018 15.5792H147.922V10.3063H145.618V35.4727ZM166.916 3.88282H164.42V0.958721H166.916V3.88282ZM166.82 35.4727H164.516V10.3063H166.82V35.4727ZM175.15 35.4727H177.454V16.5859C180.574 13.6138 183.502 11.7923 187.006 11.7923C190.846 11.7923 192.526 13.6618 192.526 17.4967V35.4727H194.83V17.2091C194.83 12.6551 192.43 9.77896 187.198 9.77896C183.502 9.77896 180.238 11.8402 177.454 14.4767V10.3063H175.15V35.4727ZM213.321 35.5686C212.505 35.7124 211.545 35.8083 210.489 35.8083C206.313 35.8083 204.297 34.1305 204.297 29.8642V12.3675H199.881V10.3063H204.297V1.15047H206.601V10.3063H213.177V12.3675H206.601V29.5286C206.601 32.2131 207.513 33.747 210.681 33.747C211.641 33.747 212.601 33.6511 213.321 33.4114V35.5686Z" fill="url(#paint0_linear_260_118403)"/>
<path d="M26.6918 60.196C28.8758 60.196 30.2618 58.936 30.2618 57.186C30.2618 55.716 29.5338 54.806 27.9938 54.498C29.2398 54.218 30.0098 53.35 30.0098 52.048C30.0098 50.634 29.0298 49.458 26.8318 49.458C25.4178 49.458 24.2698 50.088 23.4998 50.984L24.2978 51.726C24.8998 51.012 25.7398 50.55 26.7338 50.55C28.2038 50.55 28.7918 51.222 28.7918 52.202C28.7918 53.35 28.0638 54.008 25.9218 54.008H25.4318V55.03H25.8518C28.1338 55.03 29.0438 55.716 29.0438 57.158C29.0438 58.39 28.1338 59.118 26.6918 59.118C25.5998 59.118 24.6758 58.698 23.9338 57.634L23.0378 58.306C23.8358 59.524 25.1378 60.196 26.6918 60.196ZM32.2033 60H33.6453V58.53H32.2033V60ZM39.4621 60.196C41.9541 60.196 43.3401 58.054 43.3401 54.82C43.3401 51.586 41.9541 49.444 39.4621 49.444C36.9841 49.444 35.5561 51.586 35.5561 54.82C35.5561 58.054 36.9841 60.196 39.4621 60.196ZM39.4621 59.118C37.8241 59.118 36.7881 57.634 36.7881 54.82C36.7881 52.006 37.7681 50.536 39.4621 50.536C41.0861 50.536 42.1221 52.006 42.1221 54.82C42.1221 57.634 41.1281 59.118 39.4621 59.118ZM52.5312 60.196C54.7012 60.196 56.0172 58.88 56.5212 56.836L55.3592 56.57C54.9252 58.25 54.0152 59.076 52.5452 59.076C50.6132 59.076 49.3812 57.508 49.3812 54.764C49.3812 52.202 50.5852 50.578 52.5172 50.578C54.0292 50.578 54.7432 51.376 55.1912 52.944L56.3672 52.622C55.8912 50.718 54.7292 49.444 52.5312 49.444C49.9412 49.444 48.1352 51.544 48.1352 54.778C48.1352 58.166 49.8992 60.196 52.5312 60.196ZM58.6503 60H59.8823V49.64H58.6503V60ZM62.5709 60H66.5749C68.8709 60 70.1589 58.908 70.1589 57.172C70.1589 55.66 69.1789 54.89 67.9049 54.652V54.624C68.9689 54.4 69.8229 53.644 69.8229 52.23C69.8229 50.508 68.5349 49.64 66.2809 49.64H62.5709V60ZM63.7889 54.162V50.732H66.1969C67.8769 50.732 68.6189 51.236 68.6189 52.426C68.6189 53.616 67.7229 54.162 66.1689 54.162H63.7889ZM63.7889 58.922V55.226H66.2389C67.9049 55.226 68.9409 55.786 68.9409 57.088C68.9409 58.278 68.1849 58.922 66.4909 58.922H63.7889ZM77.9258 60.112C79.0318 60.112 79.7738 59.594 80.3618 58.95C80.3618 59.328 80.4458 59.762 80.5298 60H81.7898C81.6218 59.622 81.5658 59.076 81.5658 58.18V49.64H80.3618V53.546C79.8018 52.902 78.9618 52.454 78.0658 52.454C76.2598 52.454 74.9158 53.742 74.9158 56.318C74.9158 58.894 76.2318 60.112 77.9258 60.112ZM78.2198 59.118C77.0298 59.118 76.1198 58.222 76.1198 56.332C76.1198 54.386 76.9458 53.476 78.2338 53.476C79.0178 53.476 79.7178 53.868 80.3618 54.596V57.984C79.7458 58.656 79.0738 59.118 78.2198 59.118ZM86.6287 60.154C88.0147 60.154 88.9527 59.566 89.6387 58.586L88.9387 57.97C88.3787 58.74 87.7767 59.174 86.7127 59.174C85.4947 59.174 84.5287 58.278 84.4867 56.612H89.7087V56.36C89.7087 53.686 88.3787 52.454 86.6287 52.454C85.0747 52.454 83.2827 53.616 83.2827 56.304C83.2827 58.88 84.8787 60.154 86.6287 60.154ZM84.5147 55.674C84.6827 54.148 85.6207 53.462 86.6147 53.462C87.8327 53.462 88.4627 54.358 88.5607 55.674H84.5147ZM93.9193 60.14C95.5993 60.14 96.8733 59.384 96.8733 57.97C96.8733 56.444 95.7253 56.038 94.0593 55.632C92.8973 55.366 92.3093 55.114 92.3093 54.428C92.3093 53.91 92.7293 53.434 93.8073 53.434C94.6333 53.434 95.3893 53.798 95.9493 54.316L96.5793 53.518C95.8933 52.874 95.0533 52.454 93.7513 52.454C92.1413 52.454 91.1613 53.35 91.1613 54.47C91.1613 55.898 92.2393 56.318 93.8073 56.696C95.0673 56.99 95.7113 57.27 95.7113 58.012C95.7113 58.768 95.0813 59.174 93.9333 59.174C92.9253 59.174 92.1833 58.754 91.6233 58.152L90.8953 58.88C91.4973 59.608 92.5893 60.14 93.9193 60.14ZM98.6473 51.026H99.9073V49.85H98.6473V51.026ZM98.6753 60H99.8793V52.608H98.6753V60ZM104.835 62.842C106.977 62.842 108.447 62.1 108.447 60.7C108.447 59.51 107.495 58.908 105.619 58.782L104.107 58.656C103.323 58.586 103.085 58.446 103.085 58.138C103.085 57.886 103.295 57.704 103.603 57.564C103.981 57.676 104.345 57.746 104.779 57.746C106.501 57.746 107.761 56.71 107.761 55.114C107.761 54.61 107.621 54.176 107.383 53.84C107.817 53.672 108.307 53.602 108.713 53.602V52.538C108.111 52.608 107.411 52.888 106.963 53.224C106.445 52.762 105.689 52.454 104.779 52.454C103.015 52.454 101.769 53.56 101.769 55.114C101.769 56.038 102.189 56.78 102.903 57.242C102.371 57.55 101.979 57.956 101.979 58.432C101.979 58.866 102.189 59.174 102.609 59.37C101.783 59.692 101.265 60.252 101.265 61.008C101.265 62.128 102.343 62.842 104.835 62.842ZM104.793 56.864C103.659 56.864 102.917 56.206 102.917 55.142C102.917 54.078 103.631 53.392 104.779 53.392C105.969 53.392 106.641 54.064 106.641 55.142C106.641 56.206 105.927 56.864 104.793 56.864ZM104.989 61.932C103.155 61.932 102.385 61.568 102.385 60.826C102.385 60.322 102.763 59.86 103.477 59.608C103.617 59.622 103.757 59.636 103.897 59.65L105.297 59.748C106.851 59.86 107.341 60.154 107.341 60.812C107.341 61.484 106.459 61.932 104.989 61.932ZM110.144 60H111.362V54.68C112.132 53.952 112.874 53.49 113.756 53.49C114.694 53.49 115.114 53.952 115.114 54.932V60H116.318V54.666C116.318 53.266 115.548 52.454 114.134 52.454C112.93 52.454 112.006 53.084 111.362 53.714V52.608H110.144V60ZM124.148 60.14C125.828 60.14 127.102 59.384 127.102 57.97C127.102 56.444 125.954 56.038 124.288 55.632C123.126 55.366 122.538 55.114 122.538 54.428C122.538 53.91 122.958 53.434 124.036 53.434C124.862 53.434 125.618 53.798 126.178 54.316L126.808 53.518C126.122 52.874 125.282 52.454 123.98 52.454C122.37 52.454 121.39 53.35 121.39 54.47C121.39 55.898 122.468 56.318 124.036 56.696C125.296 56.99 125.94 57.27 125.94 58.012C125.94 58.768 125.31 59.174 124.162 59.174C123.154 59.174 122.412 58.754 121.852 58.152L121.124 58.88C121.726 59.608 122.818 60.14 124.148 60.14ZM129.24 62.842C130.682 62.842 131.256 62.142 131.76 60.84L134.924 52.608H133.706L131.536 58.586H131.508L129.338 52.608H128.064L130.92 60.042L130.64 60.77C130.346 61.498 129.982 61.82 129.226 61.82C128.708 61.82 128.344 61.75 128.134 61.694L127.854 62.66C128.176 62.758 128.582 62.842 129.24 62.842ZM138.777 60.14C140.457 60.14 141.731 59.384 141.731 57.97C141.731 56.444 140.583 56.038 138.917 55.632C137.755 55.366 137.167 55.114 137.167 54.428C137.167 53.91 137.587 53.434 138.665 53.434C139.491 53.434 140.247 53.798 140.807 54.316L141.437 53.518C140.751 52.874 139.911 52.454 138.609 52.454C136.999 52.454 136.019 53.35 136.019 54.47C136.019 55.898 137.097 56.318 138.665 56.696C139.925 56.99 140.569 57.27 140.569 58.012C140.569 58.768 139.939 59.174 138.791 59.174C137.783 59.174 137.041 58.754 136.481 58.152L135.753 58.88C136.355 59.608 137.447 60.14 138.777 60.14ZM146.039 60.098C146.417 60.098 146.879 60.056 147.089 60.014V59.02C146.893 59.076 146.599 59.118 146.333 59.118C145.437 59.118 145.185 58.726 145.185 57.942V53.602H147.103V52.608H145.185V49.976H143.981V52.608H142.693V53.602H143.981V58.208C143.981 59.496 144.485 60.098 146.039 60.098ZM151.652 60.154C153.038 60.154 153.976 59.566 154.662 58.586L153.962 57.97C153.402 58.74 152.8 59.174 151.736 59.174C150.518 59.174 149.552 58.278 149.51 56.612H154.732V56.36C154.732 53.686 153.402 52.454 151.652 52.454C150.098 52.454 148.306 53.616 148.306 56.304C148.306 58.88 149.902 60.154 151.652 60.154ZM149.538 55.674C149.706 54.148 150.644 53.462 151.638 53.462C152.856 53.462 153.486 54.358 153.584 55.674H149.538ZM156.451 60H157.655V54.68C158.439 53.952 159.139 53.49 159.951 53.49C160.917 53.49 161.239 53.952 161.239 54.932V60H162.443V54.68C163.213 53.952 163.899 53.49 164.725 53.49C165.691 53.49 166.013 53.952 166.013 54.932V60H167.217V54.666C167.217 53.336 166.587 52.454 165.075 52.454C163.969 52.454 163.059 53.056 162.345 53.756C162.093 52.986 161.561 52.454 160.315 52.454C159.209 52.454 158.355 53.028 157.655 53.728V52.608H156.451V60ZM172.57 62.8H173.774V59.048C174.404 59.706 175.174 60.112 176.084 60.112C177.89 60.112 179.22 58.866 179.22 56.29C179.22 53.714 177.904 52.454 176.21 52.454C175.104 52.454 174.334 53.014 173.774 53.63V52.608H172.57V62.8ZM175.916 59.132C175.132 59.132 174.418 58.74 173.774 58.012V54.624C174.39 53.952 175.076 53.49 175.93 53.49C177.12 53.49 178.016 54.414 178.016 56.304C178.016 58.264 177.204 59.132 175.916 59.132ZM181.007 51.026H182.267V49.85H181.007V51.026ZM181.035 60H182.239V52.608H181.035V60ZM184.535 60H185.739V49.64H184.535V60ZM190.975 60.154C192.781 60.154 194.405 58.838 194.405 56.304C194.405 53.756 192.781 52.454 190.975 52.454C189.155 52.454 187.531 53.756 187.531 56.304C187.531 58.838 189.169 60.154 190.975 60.154ZM190.975 59.132C189.477 59.132 188.749 57.872 188.749 56.304C188.749 54.638 189.561 53.49 190.975 53.49C192.445 53.49 193.187 54.764 193.187 56.304C193.187 57.998 192.375 59.132 190.975 59.132ZM198.703 60.098C199.081 60.098 199.543 60.056 199.753 60.014V59.02C199.557 59.076 199.263 59.118 198.997 59.118C198.101 59.118 197.849 58.726 197.849 57.942V53.602H199.767V52.608H197.849V49.976H196.645V52.608H195.357V53.602H196.645V58.208C196.645 59.496 197.149 60.098 198.703 60.098Z" fill="#0062E1"/>
<defs>
<linearGradient id="paint0_linear_260_118403" x1="12.6709" y1="2.23545e-07" x2="122.49" y2="39.7473" gradientUnits="userSpaceOnUse">
<stop stop-color="#0064FC"/>
<stop offset="1" stop-color="#0033AA"/>
</linearGradient>
</defs>
</svg>
